Coordinates
version=1
nRows=25
nColumns=23
inDegrees=yes

Units are S.I. units (second, meters, Newtons, ...)
If the header above contains a line with 'inDegrees', this indicates whether rotational values are in degrees (yes) or radians (no).

endheader
time	pelvis_tilt	pelvis_list	pelvis_rotation	pelvis_tx	pelvis_ty	pelvis_tz	hip_flexion_r	hip_adduction_r	hip_rotation_r	knee_angle_r	knee_angle_r_beta	ankle_angle_r	subtalar_angle_r	mtp_angle_r	hip_flexion_l	hip_adduction_l	hip_rotation_l	knee_angle_l	knee_angle_l_beta	ankle_angle_l	subtalar_angle_l	mtp_angle_l
      7.50000000	     -7.21186152	     -6.79388367	     -3.92071369	      2.25240911	      0.93524340	      1.06313256	      4.01437583	      8.49800273	     -1.19746184	     26.53936973	      0.46319938	     22.11001033	      9.75532245	      0.00000000	     29.09971693	     -8.08128765	     -1.18830424	     86.53099197	      1.51025071	     -0.55063826	    -14.93923945	      0.00000000
      7.50666667	     -7.36211600	     -5.88142547	     -3.72720263	      2.25309677	      0.93890277	      1.06309705	      1.67742023	      7.58198935	     -0.57014531	     24.27407359	      0.42366251	     20.15532164	      9.32941133	      0.00000000	     30.51101724	     -6.77850902	     -1.09877005	     84.36158387	      1.47238740	     -0.26808499	    -16.51565079	      0.00000000
      7.51333333	     -7.44028642	     -5.03893555	     -3.73834456	      2.25386457	      0.94285318	      1.06349482	     -0.75858983	      6.83682791	      0.61422333	     21.85793311	      0.38149290	     17.43621900	      8.03440226	      0.00000000	     31.65754045	     -5.82578655	     -1.37064963	     81.91729044	      1.42972643	      0.37239737	    -17.31975299	      0.00000000
      7.52000000	     -7.72811255	     -4.00919582	     -3.65776434	      2.25462810	      0.94651243	      1.06357536	     -2.66198526	      5.72747754	      0.90465165	     19.92696379	      0.34779113	     14.64878054	      7.69955592	      0.00000000	     32.91267189	     -4.59620101	     -1.62668460	     79.16819198	      1.38174561	      0.81913518	    -18.23127169	      0.00000000
      7.52666667	     -8.04302010	     -3.00741027	     -3.59029715	      2.25548449	      0.95019708	      1.06363023	     -4.44503616	      4.65940719	      1.20748168	     18.06555279	      0.31530338	     11.45883069	      7.03098684	      0.00000000	     34.05415424	     -3.47369515	     -1.97817103	     76.15701652	      1.32919069	      1.42226709	    -18.53232992	      0.00000000
      7.53333333	     -8.54705087	     -1.99502111	     -3.46414389	      2.25628446	      0.95359057	      1.06351986	     -5.72992293	      3.51018202	      0.85831737	     16.68641409	      0.29123287	      8.16306333	      6.92259308	      0.00000000	     35.27306216	     -2.31288447	     -2.27033098	     72.88886242	      1.27215064	      2.00943250	    -18.44926494	      0.00000000
      7.54000000	     -8.80478465	     -1.15233880	     -3.40805548	      2.25722813	      0.95729710	      1.06358671	     -7.29062984	      2.60637083	      0.94782759	     15.19256237	      0.26516024	      4.48845955	      6.05318734	      0.00000000	     36.04462417	     -1.47117863	     -2.69408917	     69.36645613	      1.21067305	      2.60303864	    -17.90285567	      0.00000000
      7.54666667	     -9.69308764	     -0.36081584	     -3.54121857	      2.25771033	      0.96018947	      1.06378208	     -7.60181400	      1.65589821	      0.39176289	     14.72050031	      0.25692120	      1.30133379	      6.41217875	      0.00000000	     37.38440613	     -0.81799904	     -3.19669277	     65.64527188	      1.14572613	      3.15228904	    -17.02402609	      0.00000000
      7.55333333	    -10.27932742	      0.34604753	     -3.32139558	      2.25854371	      0.96317622	      1.06358436	     -8.21408328	      0.80814591	     -0.68598216	     14.28496467	      0.24931967	     -2.22253089	      6.25461194	      0.00000000	     38.24249531	     -0.07726022	     -3.49855622	     61.67148116	      1.07637040	      3.61696902	    -15.66775980	      0.00000000
      7.56000000	    -10.12549471	      0.81072646	     -2.92574658	      2.25973037	      0.96688025	      1.06322688	     -9.78192601	      0.31711450	     -1.38138952	     13.51858353	      0.23594379	     -5.78339689	      5.24778471	      0.00000000	     38.10691544	      0.54682254	     -3.65463046	     57.48375282	      1.00328075	      4.36366500	    -13.59159603	      0.00000000
      7.56666667	    -10.81766738	      1.19077922	     -2.77264452	      2.26039079	      0.96937415	      1.06310117	     -9.84522124	     -0.17319206	     -2.47483230	     13.85015536	      0.24173081	     -8.83536626	      4.82777350	      0.00000000	     38.75514514	      0.90762477	     -3.95012151	     53.11976025	      0.92711471	      4.81249814	    -11.78146575	      0.00000000
      7.57333333	    -11.26720471	      1.46701853	     -2.49459415	      2.26114670	      0.97179870	      1.06279250	    -10.04017581	     -0.55332908	     -3.74613280	     14.45257755	      0.25224506	    -11.63454291	      4.14317229	      0.00000000	     38.98278294	      1.24864041	     -4.22538123	     48.59135795	      0.84807918	      5.41930260	     -9.50249818	      0.00000000
      7.58000000	    -11.37314178	      1.61430652	     -2.27617423	      2.26200834	      0.97419184	      1.06267824	    -10.44629804	     -0.83061834	     -5.07989198	     15.35749697	      0.26803889	    -13.98982665	      3.36638718	      0.00000000	     38.70646282	      1.30844004	     -4.91636517	     44.03260468	      0.76851393	      6.45933453	     -6.24384372	      0.00000000
      7.58666667	    -11.75148258	      1.76045915	     -1.99269239	      2.26270777	      0.97583115	      1.06222296	    -10.30553665	     -1.16307780	     -6.65212745	     16.78098544	      0.29288345	    -16.02709299	      2.36890845	      0.00000000	     38.55607205	      1.57620945	     -5.32445020	     39.26666867	      0.68533265	      7.17034503	     -3.78756861	      0.00000000
      7.59333333	    -12.03731918	      1.85817816	     -1.72970184	      2.26340253	      0.97703471	      1.06167851	    -10.07914895	     -1.53277500	     -8.36178946	     18.60218210	      0.32466933	    -17.62750435	      1.43576092	      0.00000000	     38.17417920	      1.82880611	     -5.81315726	     34.46622556	      0.60154912	      8.01071355	     -1.25436724	      0.00000000
      7.60000000	    -12.22005281	      2.08197411	     -1.50728814	      2.26420440	      0.97770860	      1.06096094	     -9.75207488	     -2.23152694	    -10.52221719	     20.93730709	      0.36542495	    -18.55495540	      1.09892818	      0.00000000	     37.53381753	      2.22742084	     -6.48386044	     29.63859125	      0.51729100	      8.91808231	      1.24736157	      0.00000000
      7.60666667	    -12.38387829	      2.26923019	     -1.26561862	      2.26498754	      0.97786865	      1.05998285	     -9.42007340	     -2.88542495	    -12.25813585	     23.33769445	      0.40731961	    -19.29694626	     -0.09398540	      0.00000000	     36.73836124	      2.76292919	     -6.77633640	     24.80036728	      0.43284806	      9.69335098	      3.10116242	      0.00000000
      7.61333333	    -12.36585739	      2.58646309	     -0.98732727	      2.26589849	      0.97753905	      1.05880003	     -9.18074024	     -3.84719754	    -14.30247751	     26.07511230	      0.45509656	    -19.40220604	     -0.57578091	      0.00000000	     35.57458940	      3.58469726	     -6.56079290	     19.90997117	      0.34749455	     10.18063584	      3.97910763	      0.00000000
      7.62000000	    -12.35535877	      2.71016993	     -0.73756330	      2.26680802	      0.97660126	      1.05763537	     -8.94264801	     -4.49092651	    -15.58933003	     28.72584719	      0.50136061	    -19.47505934	     -2.15448123	      0.00000000	     34.49782046	      4.13249736	     -6.48739726	     15.60136498	      0.27229519	     10.84431717	      5.23475954	      0.00000000
      7.62666667	    -11.90694236	      2.97941678	     -0.51709033	      2.26791856	      0.97570899	      1.05649799	     -9.14408515	     -5.39225184	    -16.98571125	     31.47680590	      0.54937390	    -18.96433178	     -2.76453901	      0.00000000	     32.54706721	      4.99827478	     -5.02161777	     10.83334305	      0.18907751	     10.58640052	      4.06480289	      0.00000000
      7.63333333	    -11.52012520	      3.01248795	     -0.33940356	      2.26891331	      0.97418833	      1.05555854	     -9.20929856	     -5.90223173	    -17.68693479	     34.19980992	      0.59689929	    -18.48167437	     -4.23599929	      0.00000000	     31.02998770	      5.37628800	     -4.28020965	      7.31465344	      0.12766479	     10.69374762	      3.96988434	      0.00000000
      7.64000000	    -11.10689837	      2.97773672	     -0.04136807	      2.26978410	      0.97228538	      1.05446271	     -9.23494266	     -6.29647802	    -18.26334887	     36.97895910	      0.64540459	    -17.95742435	     -5.76939900	      0.00000000	     29.71280900	      5.66300115	     -3.55600683	      4.71902229	      0.08236248	     10.71350883	      3.79607902	      0.00000000
      7.64666667	    -10.76026179	      2.85910815	      0.40602353	      2.27037003	      0.97002451	      1.05322894	     -9.08022132	     -6.52415920	    -18.69391728	     39.84689681	      0.69545955	    -17.20282967	     -7.41993276	      0.00000000	     28.93999025	      5.82375470	     -3.39106100	      3.55127276	      0.06198140	     11.19525167	      4.38230069	      0.00000000
      7.65333333	    -10.38530482	      3.07751161	      0.54035607	      2.27073122	      0.96753227	      1.05233086	     -8.69992244	     -7.23243397	    -18.82503999	     43.01720388	      0.75079184	    -16.66104565	     -8.90188551	      0.00000000	     28.10860697	      6.14147674	     -3.54167578	      2.71066655	      0.04731006	     10.75092703	      4.44686118	      0.00000000
      7.66000000	    -10.01967319	      3.31393573	      0.87605510	      2.27092420	      0.96484863	      1.05122205	     -8.24790815	     -7.91414296	    -19.02737212	     46.21700638	      0.80663893	    -16.07049964	    -10.39218378	      0.00000000	     27.45225579	      6.55265180	     -3.40854067	      2.64501774	      0.04616427	     10.15759911	      4.18329463	      0.00000000
